<?xml version="1.0" encoding="UTF-8"?>
<svg id="Layer_1" data-name="Layer 1" xmlns="http://www.w3.org/2000/svg" viewBox="0 0 446.28 236.11">
  <defs>
    <style>
      .cls-1 {
        letter-spacing: -.02em;
      }

      .cls-2 {
        fill: #231f20;
        font-family: Legitima, Legitima;
        font-size: 50.76px;
      }

      .cls-3 {
        stroke-width: 0px;
      }
    </style>
  </defs>
  <g>
    <path class="cls-3" d="m239.58,193.95c-.83-.01-1.59-.03-2.34-.03-11.23-.03-22.46-.07-33.69-.04-1.2,0-1.9-.41-2.5-1.4-10.28-16.85-20.57-33.69-30.87-50.54-6.91-11.3-13.86-22.58-20.71-33.91-6.58-10.89-13.01-21.87-19.6-32.75-2.51-4.14-5.31-8.11-8.19-12.47-3.82,6.03-7.52,11.84-11.19,17.68-4.75,7.56-9.5,15.13-14.21,22.72-3.72,5.99-7.35,12.04-11.06,18.04-2.32,3.75-4.72,7.44-7.07,11.17-3.69,5.87-7.39,11.75-11.05,17.64-8.52,13.73-17.12,27.41-25.45,41.26-1.81,3.02-3.38,4.87-7.35,4.72-7-.25-14.03.17-21.03.47-3.95.17-7.88.66-11.82,1-.43.04-.87,0-1.46-.01C40.68,131.67,81.29,65.98,122.08,0c39.17,64.65,78.26,129.16,117.51,193.95ZM122.36,21.65c-.32.02-.65.05-.97.07-33.73,54.32-67.47,108.64-101.49,163.43,1.48.02,2.3.08,3.11.03,2.33-.14,4.67-.54,6.98-.41,1.99.1,3.12-.62,4.1-2.22,2.2-3.6,4.56-7.11,6.79-10.69,18.56-29.83,37.11-59.67,55.65-89.52,6.1-9.82,12.16-19.66,18.2-29.51,2.44-3.97,4.78-8,7.24-12.15,2.37,3.95,4.69,7.84,7.02,11.72,11.68,19.41,23.32,38.85,35.06,58.23,11.91,19.66,23.91,39.26,35.88,58.88,2.37,3.88,4.7,7.78,7.18,11.59.61.94,1.7,2.16,2.62,2.2,3.41.15,6.83-.14,10.77-.28-33.26-53.69-64.91-108.02-98.16-161.37Z"/>
    <path class="cls-3" d="m121.61,83.36c22.79,36.91,45.53,73.72,68.42,110.79-46.36-1.73-92.58.67-138.91,1.4,23.46-37.34,47.03-74.85,70.49-112.19Zm18.31,52.08c-10.66,16.11-21.06,31.83-31.46,47.55.13.21.26.42.4.63,20.15-.23,40.29-.46,60.95-.69-10.03-15.94-19.82-31.5-29.88-47.48Zm-68.95,49.29c1.1.08,1.73.17,2.35.16,5.26-.05,10.6-.71,15.75,0,4.49.61,6.43-1.45,8.49-4.62,7.05-10.82,14.23-21.55,21.39-32.29.67-1,.77-1.78.04-2.79-3.52-4.88-6.99-9.79-10.48-14.69-.06-.08-.23-.09-.82-.29-13.31,17.21-24.63,35.92-36.72,54.54Zm63.02-61.22c-4.42-6.3-8.59-12.26-12.72-18.14-2.33,3.1-4.61,6.06-6.8,9.09-.33.46-.55,1.37-.32,1.81,3.42,6.33,6.54,12.86,11.84,17.95.39.38.84.69,1.21.99,2.41-4.15,4.72-8.12,6.79-11.7Z"/>
    <path class="cls-3" d="m57.93,212.48c2.25-2.25,4.3-4.4,6.48-6.41.37-.34,1.44-.37,1.91-.08,4.04,2.47,7.97,5.13,12.03,7.57,11.08,6.68,23.1,10.49,35.98,11.62,21.38,1.89,40.53-4.15,58.03-16.16,3.52-2.42,4.06-2.39,7.16.51.76.71,1.48,1.51,2.37,2.02,1.59.91,1.28,1.81.09,2.63-4.74,3.28-9.31,6.89-14.33,9.67-14.99,8.31-31.14,12.62-48.31,12.23-17.65-.4-34-5.5-48.9-15.01-4.04-2.58-7.97-5.35-11.94-8.05-.26-.18-.46-.44-.57-.55Z"/>
    <path class="cls-3" d="m85.65,26.65c.92,1.29,1.93,2.55,2.76,3.92,1.2,1.96.46,4.85-1.61,6.17-2.46,1.57-5,3.02-7.51,4.51-21.24,12.56-36.05,30.63-45.17,53.39-3.12,7.78-5.1,15.92-5.82,24.31-.33,3.79-.55,7.6-.83,11.39-.03.37-.1.81-.33,1.07-2.93,3.33-5.88,6.63-8.7,9.79-6.7-38.16,17.58-93.6,67.21-114.56Z"/>
    <path class="cls-3" d="m158.52,26.57c7.89,5.23,15.97,9.8,23.14,15.5,19.64,15.61,33.19,35.51,40.39,59.68,3.78,12.7,4.93,25.56,3.35,38.69-.13,1.07-.4,2.13-.72,3.75-.92-1.21-1.57-1.97-2.12-2.8-1.81-2.69-3.65-5.37-5.33-8.14-.57-.94-.95-2.15-.98-3.26-.75-23.29-8.31-44.05-22.89-62.25-9.13-11.4-20.2-20.5-32.81-27.79-1.12-.65-2.22-1.35-3.26-2.13-2.34-1.77-2.91-4.54-1.44-7.07.71-1.23,1.53-2.39,2.69-4.18Z"/>
  </g>
  <text class="cls-2" transform="translate(239.58 113.76)"><tspan x="0" y="0">Alpine</tspan><tspan class="cls-1" x="0" y="60.91">P</tspan><tspan x="27.36" y="60.91">rovisions</tspan></text>
</svg>